<?xml version="1.0" ?><svg viewBox="0 0 40 40" xmlns="http://www.w3.org/2000/svg"><defs><style>.cls-1{fill:#161413;fill-rule:evenodd;}</style></defs><g id="Logos"><g id="Chanel"><path class="cls-1" d="M9.32,28.34s0,0,0,0a2.3,2.3,0,0,1-2,1.23,2.36,2.36,0,0,1,0-4.71,2.27,2.27,0,0,1,2,1.25l0,0s-.73.54-.74.53,0,0,0,0a1.38,1.38,0,0,0-1.3-.86,1.44,1.44,0,0,0,0,2.88,1.4,1.4,0,0,0,1.27-.83l0-.05Z" id="path6"/><path class="cls-1" d="M10.28,24.93h.88v1.65h2.32V24.93h.89v4.58h-.89v-2H11.16v2h-.88Z" id="path10"/><path class="cls-1" d="M26.83,29.51V24.93H30v.93H27.72v.91h2.14v.92H27.72v.91h2.64v.91Z" id="path14"/><path class="cls-1" d="M31.61,29.51V24.93h.9V28.6H35v.91Z" id="path18"/><path class="cls-1" d="M22,29.51h-.9V24.93h1.25l2,2.76V24.93h.89v4.58H24.5L22,26.06Z" id="path22"/><path class="cls-1" d="M17.74,25.86,17,27.69h1.61ZM16.55,28.6l-.41.91H15.08l2-4.58h1.24l2,4.58H19.34l-.41-.91Z" id="path26"/><path class="cls-1" d="M20.46,23.17a6.73,6.73,0,0,1-3.34.88,6.86,6.86,0,0,1-5.9-3.39s0,0,0,0,0,0,0,0l1-.5,1-.49,0,0a4.65,4.65,0,0,0,4,2.22,4.94,4.94,0,0,0,1.52-.24A6.7,6.7,0,0,1,17,17.22a6.78,6.78,0,0,1,1.63-4.42,4.58,4.58,0,0,0-1.5-.24,4.67,4.67,0,0,0-4,2.31,0,0,0,0,0,0,0l-1.93-1a.08.08,0,0,1,0-.05,6.83,6.83,0,0,1,5.94-3.45,6.63,6.63,0,0,1,3.34.89,6.66,6.66,0,0,1,3.34-.89,6.83,6.83,0,0,1,5.94,3.45l0,.05-1.94,1a0,0,0,0,0,0,0,4.67,4.67,0,0,0-4-2.31,4.58,4.58,0,0,0-1.5.24,6.78,6.78,0,0,1,1.63,4.42,6.7,6.7,0,0,1-1.65,4.42,4.94,4.94,0,0,0,1.52.24,4.68,4.68,0,0,0,4-2.22s0,0,0,0l1,.49,1,.5s0,0,0,0,0,0,0,0a6.86,6.86,0,0,1-5.9,3.39A6.76,6.76,0,0,1,20.46,23.17Zm0-2.71a4.73,4.73,0,0,1-1.3-3.24,4.54,4.54,0,0,1,1.3-3.2,4.54,4.54,0,0,1,1.3,3.2A4.73,4.73,0,0,1,20.46,20.46Z" id="path30"/></g></g></svg>