<?xml version="1.0" ?><svg viewBox="0 0 40 40" xmlns="http://www.w3.org/2000/svg"><defs><style>.cls-1{fill:#4d4d4d;}</style></defs><g id="Logos"><g id="Fila"><path d="M14.65,23.62l0-7.24a1.29,1.29,0,0,1,1.29-1.32h.14a1.32,1.32,0,0,1,1.32,1.32l0,7.24a1.32,1.32,0,0,1-1.32,1.32h-.15a1.29,1.29,0,0,1-1.29-1.32" id="path10106"/><path d="M31.29,15.92l2.93,4.76c.63,1,.78,1.3.78,2.06a2.17,2.17,0,0,1-2,2.11H29a1.24,1.24,0,0,1-1.31-1.22v-.08A1.31,1.31,0,0,1,29,22.25h2.42c.15,0,.25,0,.29-.12a.27.27,0,0,0,0-.28l-1.73-2.77s-.06-.11-.11-.11-.09.06-.12.11l-2.64,4.53c-.41.72-.89,1.24-1.61,1.24H20.39a2.07,2.07,0,0,1-1.93-1.93V16.37a1.3,1.3,0,0,1,1.3-1.3h.17a1.3,1.3,0,0,1,1.3,1.3v5.35a.34.34,0,0,0,.35.36h2.53a1,1,0,0,0,.94-.55l3.39-5.61a1.62,1.62,0,0,1,1.45-.82,1.55,1.55,0,0,1,1.4.82" id="path10110"/><path d="M8.13,21.46a.36.36,0,0,0-.36.36v1.82a1.3,1.3,0,0,1-1.3,1.3H6.3A1.3,1.3,0,0,1,5,23.64V20.32a1.53,1.53,0,0,1,1.55-1.55h5.3a1.3,1.3,0,0,1,1.3,1.3v.09a1.3,1.3,0,0,1-1.3,1.3Z" id="path10114"/><path class="cls-1" d="M6.32,15.25h6.17a1.29,1.29,0,0,1,1.32,1.29v.08a1.32,1.32,0,0,1-1.32,1.32H6.32A1.32,1.32,0,0,1,5,16.62v-.09a1.29,1.29,0,0,1,1.32-1.28" id="path10118"/></g></g></svg>