<?xml version="1.0" ?><!DOCTYPE svg  PUBLIC '-//W3C//DTD SVG 1.1//EN'  'http://www.w3.org/Graphics/SVG/1.1/DTD/svg11.dtd'><svg height="80px" id="Layer_1" style="enable-background:new 0 0 80 80;" version="1.1" viewBox="0 0 80 80" width="80px" xml:space="preserve" xmlns="http://www.w3.org/2000/svg" xmlns:xlink="http://www.w3.org/1999/xlink"><style type="text/css">
	.st0{fill:#1C2B36;}
</style><g><g><path class="st0" d="M54.2,50.6h15.7c0.6-1.3,1.6-3.5,1.9-5.8c0.6-4.5-0.3-7.4-1.2-9.7c-0.3,0-0.6,0-0.9,0    C61.2,35.1,54.2,42.1,54.2,50.6z"/><path class="st0" d="M69.7,32.9c0,0,0.1,0,0.1,0c-0.5-1.6-0.8-2.9,0-4.6c1.2-2.5-1.7-5.2-3.2-3.3c-4.7,5.8-17.4,3.3-20.3-1.6    c-1.8-3-2.8,2.5-10.1,6.2l2.1,3.6c0.5,0.9,0.2,2.2-0.7,2.7c-0.9,0.5-2.2,0.2-2.7-0.7l-2.3-4c-1.5,0.6-3,1.1-4.3,1.6l1.9,3.5    c0.5,1,0.2,2.2-0.8,2.7c-1,0.5-2.2,0.2-2.7-0.8l-2.1-3.9c-1.5,0.6-2.8,1.2-4,1.9l2,3.5c0.5,0.9,0.2,2.2-0.7,2.7    c-1,0.5-2.2,0.2-2.7-0.7l-2-3.5c-6,3.8-7.2,7.4-6.9,12.5h23.8c2.1-3,5.6-4.9,9.3-4.9c3.4,0,6.6,1.5,8.7,4.1    C52.5,40.4,60.3,32.9,69.7,32.9z"/></g><path class="st0" d="M51.1,53.6c-1.4-3-4.3-4.9-7.7-4.9c-3.4,0-6.3,1.9-7.7,4.9c0,0-21.7,0-26.8,0c-1.3,0-1.3,3.8,0,3.8   c6.4,0,30.1,0,30.1,0c0,0,0-0.2,0-0.4c0-1.5,0.8-2.8,2-3.6c0.7-0.5,1.5-0.7,2.4-0.7c0.9,0,1.7,0.3,2.4,0.7c1.2,0.8,2,2,2,3.6   c0,0.2,0,0.4,0,0.4c0,0,18.2,0,23.3,0c0.9,0,0.9-3.8,0-3.8C66.8,53.6,51.1,53.6,51.1,53.6z"/></g></svg>