<?xml version="1.0" ?><svg viewBox="0 0 40 40" xmlns="http://www.w3.org/2000/svg"><g id="Logos"><path d="M33.46,25.94,29,13.7h-.09L28,16.21l-1.67,4.57h0a4.34,4.34,0,0,0-2.42-1l-.31,0,.31,0c1.69-.3,2.83-1.37,2.83-2.66,0-1.77-1.66-3-4-3H17.76v.09H19.2v9.13L15.71,13.7h-.1l-.91,2.52L11.17,25.9H11l-.27,0H7.14l6.78-11.75L14,14.1H5.67v3.64h.09a3.29,3.29,0,0,1,3.32-3.55h2.75L5,26h9.2V22.54h-.08a3.25,3.25,0,0,1-2.79,3.34h-.06l1.45-4h4l1.46,4H16.79V26h5.66v-.08H21V19.87h1.67c1.7,0,2.68.76,2.68,2.08V23c0,.11,0,.29,0,.43h0l-.9,2.47H23.29V26h2.43v-.08H24.56l.82-2.25v0l0,.21,0,.13a2.69,2.69,0,0,0,.94,1.81l.07.05a2.33,2.33,0,0,0,1.37.39,2,2,0,0,0,1.58-.6l-.05-.05a1.44,1.44,0,0,1-1.05.47c-.64,0-1-.78-1-1.56V23.06a3.47,3.47,0,0,0-.18-1.1v-.05h3l1.46,4H30.1V26H35v-.08ZM12.75,21.82l2-5.49,2,5.49Zm8.25-2V14.19h1.28c1.7,0,2.6,1,2.6,2.93s-.51,2.66-2.21,2.66Zm6.08,2v0a2.72,2.72,0,0,0-.56-.86l-.09-.08h0l1.65-4.52,2,5.49Z" id="ZARA"/></g></svg>